<svg xmlns="http://www.w3.org/2000/svg" viewBox="0 0 3298.42 525.86"><defs><clipPath id="A"><path d="M0 0h3298.42v525.86H0z" fill="none"/></clipPath><clipPath id="B"><path d="M0 0h3298.42v525.86H0z" fill="none"/></clipPath></defs><g clip-path="url(#A)"><g clip-path="url(#B)"><g fill="#fff"><path d="M1155.33 119.8a102.37 102.37 0 0 1 21.74 32.2 97.1 97.1 0 0 1 8.06 39.15v244.2h-54.84v-155.6H864.5v155.6h-54.2V191a97.32 97.32 0 0 1 8-39.13 102.7 102.7 0 0 1 21.76-32.22 93.89 93.89 0 0 1 31.49-21.51 100.14 100.14 0 0 1 39.14-7.66h173.8a97.9 97.9 0 0 1 38.91 7.66 100 100 0 0 1 31.89 21.66m-25.3 71.6a47.41 47.41 0 0 0-14.34-34.88 44.77 44.77 0 0 0-34.39-14.33h-167.5a47.39 47.39 0 0 0-34.87 14.33 49.73 49.73 0 0 0-10.47 15.55 48.39 48.39 0 0 0-3.78 19.33v36.73h265.78zm505.54-2.33a97 97 0 0 1 39.14 8.06 102.7 102.7 0 0 1 32.22 21.74 100.13 100.13 0 0 1 21.51 31.74 98 98 0 0 1 7.65 38.9v145.86h-54.7V289.6a47.47 47.47 0 0 0-14.36-34.87 49.87 49.87 0 0 0-15.55-10.48 48.39 48.39 0 0 0-19.33-3.78h-72.5a48.42 48.42 0 0 0-19.33 3.78 49.59 49.59 0 0 0-15.55 10.48 47.4 47.4 0 0 0-14.33 34.87v145.78H1456V289.6a49 49 0 0 0-49-49.13h-72.8a47 47 0 0 0-18.85 3.78 49.82 49.82 0 0 0-15.55 10.48 50.7 50.7 0 0 0-15.14 34.87v145.78h-54.37V289.6a95.73 95.73 0 0 1 8.07-38.9 104.74 104.74 0 0 1 53.48-53.49 95.55 95.55 0 0 1 38.9-8h79.74a96.3 96.3 0 0 1 40.27 8.61 106.56 106.56 0 0 1 32.7 22.88 107 107 0 0 1 32.21-22.88 94.69 94.69 0 0 1 40.28-8.61zm145.63-98.34h54.45v53.5h-54.45zm54.43 98.35h-54.45v246.3h54.45zm147.4 246.3a95.83 95.83 0 0 1-38.66-8.06 102.16 102.16 0 0 1-32.21-21.74 93.69 93.69 0 0 1-21.51-31.5 99.84 99.84 0 0 1-7.66-39.13V90.73h54.45v243.9a47.83 47.83 0 0 0 3.63 18.6 48.87 48.87 0 0 0 42.69 30.52l10 .5v51.14zm163.73 0a98 98 0 0 1-38.9-7.65 99.89 99.89 0 0 1-31.73-21.5 103.19 103.19 0 0 1-21.74-31.74 95.56 95.56 0 0 1-8.06-38.9v-94.3h-24.16v-51.55h24.16V118h54.93v71.6h74.9v51.72h-74.9v93.78a45.39 45.39 0 0 0 13.37 33.43 46.09 46.09 0 0 0 32.22 15.29h38.66v51.55zm376.14-216.74a98.93 98.93 0 0 1 29.13 70.95v45.84a98.4 98.4 0 0 1-7.65 38.9c-15.656 37.2-52.25 61.27-92.62 60.9H2319.5a99.43 99.43 0 0 1-39.14-7.66 93.66 93.66 0 0 1-31.5-21.5 103.08 103.08 0 0 1-21.74-31.73 95.59 95.59 0 0 1-8.06-38.9V289.6a97 97 0 0 1 8.06-39.13 102.42 102.42 0 0 1 21.74-32.22 94 94 0 0 1 31.5-21.51 99.94 99.94 0 0 1 39.14-7.64h132.26a98.94 98.94 0 0 1 71.11 29.07zm-25.3 71.6a48.32 48.32 0 0 0-3.78-19.33 49.8 49.8 0 0 0-10.48-15.56 47.46 47.46 0 0 0-34.87-14.09h-125.57A47.52 47.52 0 0 0 2288 255.6a49.74 49.74 0 0 0-10.47 15.54 48.46 48.46 0 0 0-3.79 19.35v44.85a46.76 46.76 0 0 0 3.79 18.84 49.44 49.44 0 0 0 10.47 15.55 47.39 47.39 0 0 0 34.87 14.33h125.57a47.36 47.36 0 0 0 34.87-14.33A49.46 49.46 0 0 0 2494 354a47.36 47.36 0 0 0 3.8-18.85zm372.76 145.14V289.6a47.37 47.37 0 0 0-14.33-34.87 49.46 49.46 0 0 0-15.54-10.47 47 47 0 0 0-18.84-3.79H2695.4a47 47 0 0 0-18.84 3.79 49.12 49.12 0 0 0-15.55 10.47 47.36 47.36 0 0 0-13.94 34.87v145.78h-54.46V289.6a98.13 98.13 0 0 1 7.66-38.9 100.13 100.13 0 0 1 21.52-31.69 103.43 103.43 0 0 1 31.73-21.74 95.64 95.64 0 0 1 38.91-8.06h132.73a95.56 95.56 0 0 1 38.9 8.06 103.59 103.59 0 0 1 31.74 21.74 100.43 100.43 0 0 1 21.5 31.74 98.47 98.47 0 0 1 7.65 38.9v145.73zm149.9-94.07a43 43 0 0 0 4.78 15.29 62.48 62.48 0 0 0 9.11 12.89 47.5 47.5 0 0 0 34.89 14.34h199v51.54h-202.12a99.76 99.76 0 0 1-39.13-7.65 93.41 93.41 0 0 1-31.49-21.51 101.91 101.91 0 0 1-21.75-32.21 97.25 97.25 0 0 1-8.06-39.14v-45.28a95.78 95.78 0 0 1 8.06-38.89 102.65 102.65 0 0 1 21.75-31.69 93.41 93.41 0 0 1 31.49-21.51 100.13 100.13 0 0 1 39.13-7.66h132.27c40.33-.234 76.852 23.78 92.62 60.9a98.53 98.53 0 0 1 7.65 38.89v52.05zm13.46-85.87A49.43 49.43 0 0 0 3023.2 271a47 47 0 0 0-3.78 18.85h223.83a47.2 47.2 0 0 0-3.78-18.85 50 50 0 0 0-10.47-15.56 47.5 47.5 0 0 0-34.22-14.18H3069a47.43 47.43 0 0 0-35.27 14.18"/></g><path d="M616.25 159.23a182.06 182.06 0 0 1 5.56 44.62c0 97.13-75.8 175.83-169.15 175.83S283.53 301 283.53 203.85c0-86.34 59.92-158.2 138.93-173l-.4-.72-1.3-2c-112.77 2.93-201.87 96.8-198.9 209.6s96.82 201.87 209.64 198.9S633.36 339.82 630.4 227a204.69 204.69 0 0 0-13.11-66.81z" fill="#ce3089"/><path d="M636.47 178.3c30.78 117.85-39.8 238.33-157.64 269.1s-238.3-39.8-269.1-157.63 39.8-238.3 157.63-269.1a220.22 220.22 0 0 1 38.91-6.52c-6.12 0-12.24-.64-18.44-.64-147.3 0-266.83 114.7-266.83 256.2s119.36 256.13 266.66 256.13 266.68-114.7 266.68-256.13A246.2 246.2 0 0 0 637 179.12z" fill="#2f57a3"/><path d="M178.74 460.55a268.45 268.45 0 0 1-75.63-192.66c3.14-139.5 113-252.67 252.42-267.9h-23.68C142.58 6.93-5.86 155.12.18 331.1A303.45 303.45 0 0 0 77.5 521.92z" fill="#293286"/></g></g></svg>