<?xml version="1.0" encoding="UTF-8" standalone="no"?>
<svg
   xmlns:dc="http://purl.org/dc/elements/1.1/"
   xmlns:cc="http://creativecommons.org/ns#"
   xmlns:rdf="http://www.w3.org/1999/02/22-rdf-syntax-ns#"
   xmlns:svg="http://www.w3.org/2000/svg"
   xmlns="http://www.w3.org/2000/svg"
   xmlns:sodipodi="http://sodipodi.sourceforge.net/DTD/sodipodi-0.dtd"
   xmlns:inkscape="http://www.inkscape.org/namespaces/inkscape"
   viewBox="0 0 654.33797 525.84999"
   version="1.1"
   id="svg24"
   sodipodi:docname="LogoAmiltoneSeul.svg"
   width="654.33795"
   height="525.84998"
   inkscape:version="0.92.4 (5da689c313, 2019-01-14)"
   inkscape:export-filename="C:\Users\SoftFactory_Niort\Documents\Dev\afpr-test\src\img\LogoAmiltoneSeul.png"
   inkscape:export-xdpi="96"
   inkscape:export-ydpi="96">
  <metadata
     id="metadata28">
    <rdf:RDF>
      <cc:Work
         rdf:about="">
        <dc:format>image/svg+xml</dc:format>
        <dc:type
           rdf:resource="http://purl.org/dc/dcmitype/StillImage" />
        <dc:title></dc:title>
      </cc:Work>
    </rdf:RDF>
  </metadata>
  <sodipodi:namedview
     pagecolor="#ffffff"
     bordercolor="#666666"
     borderopacity="1"
     objecttolerance="10"
     gridtolerance="10"
     guidetolerance="10"
     inkscape:pageopacity="0"
     inkscape:pageshadow="2"
     inkscape:window-width="1827"
     inkscape:window-height="1051"
     id="namedview26"
     showgrid="false"
     inkscape:zoom="0.39"
     inkscape:cx="209.76461"
     inkscape:cy="-115.73433"
     inkscape:window-x="2391"
     inkscape:window-y="-9"
     inkscape:window-maximized="1"
     inkscape:current-layer="layer1">
    <inkscape:grid
       type="xygrid"
       id="grid18" />
  </sodipodi:namedview>
  <defs
     id="defs8">
    <clipPath
       id="A">
      <path
         d="M 0,0 H 3298.42 V 525.86 H 0 Z"
         id="path2"
         inkscape:connector-curvature="0"
         style="fill:none" />
    </clipPath>
    <clipPath
       id="B">
      <path
         d="M 0,0 H 3298.42 V 525.86 H 0 Z"
         id="path5"
         inkscape:connector-curvature="0"
         style="fill:none" />
    </clipPath>
  </defs>
  <g
     clip-path="url(#A)"
     id="g22"
     transform="translate(-0.0020235,0.01)">
    <g
       clip-path="url(#B)"
       id="g20"
       transform="matrix(0.99441612,0,0,1,3.4062111,3.525873)">
      <g
         id="g12"
         style="fill:#ffffff">
        <path
           d="m 1155.33,119.8 a 102.37,102.37 0 0 1 21.74,32.2 97.1,97.1 0 0 1 8.06,39.15 v 244.2 h -54.84 V 279.75 H 864.5 v 155.6 H 810.3 V 191 a 97.32,97.32 0 0 1 8,-39.13 102.7,102.7 0 0 1 21.76,-32.22 93.89,93.89 0 0 1 31.49,-21.51 100.14,100.14 0 0 1 39.14,-7.66 h 173.8 a 97.9,97.9 0 0 1 38.91,7.66 100,100 0 0 1 31.89,21.66 m -25.3,71.6 a 47.41,47.41 0 0 0 -14.34,-34.88 44.77,44.77 0 0 0 -34.39,-14.33 h -167.5 a 47.39,47.39 0 0 0 -34.87,14.33 49.73,49.73 0 0 0 -10.47,15.55 48.39,48.39 0 0 0 -3.78,19.33 v 36.73 h 265.78 z m 505.54,-2.33 a 97,97 0 0 1 39.14,8.06 102.7,102.7 0 0 1 32.22,21.74 100.13,100.13 0 0 1 21.51,31.74 98,98 0 0 1 7.65,38.9 v 145.86 h -54.7 V 289.6 a 47.47,47.47 0 0 0 -14.36,-34.87 49.87,49.87 0 0 0 -15.55,-10.48 48.39,48.39 0 0 0 -19.33,-3.78 h -72.5 a 48.42,48.42 0 0 0 -19.33,3.78 49.59,49.59 0 0 0 -15.55,10.48 47.4,47.4 0 0 0 -14.33,34.87 V 435.38 H 1456 V 289.6 a 49,49 0 0 0 -49,-49.13 h -72.8 a 47,47 0 0 0 -18.85,3.78 49.82,49.82 0 0 0 -15.55,10.48 50.7,50.7 0 0 0 -15.14,34.87 v 145.78 h -54.37 V 289.6 a 95.73,95.73 0 0 1 8.07,-38.9 104.74,104.74 0 0 1 53.48,-53.49 95.55,95.55 0 0 1 38.9,-8 h 79.74 a 96.3,96.3 0 0 1 40.27,8.61 106.56,106.56 0 0 1 32.7,22.88 107,107 0 0 1 32.21,-22.88 94.69,94.69 0 0 1 40.28,-8.61 z m 145.63,-98.34 h 54.45 v 53.5 h -54.45 z m 54.43,98.35 h -54.45 v 246.3 h 54.45 z m 147.4,246.3 a 95.83,95.83 0 0 1 -38.66,-8.06 102.16,102.16 0 0 1 -32.21,-21.74 93.69,93.69 0 0 1 -21.51,-31.5 99.84,99.84 0 0 1 -7.66,-39.13 V 90.73 h 54.45 v 243.9 a 47.83,47.83 0 0 0 3.63,18.6 48.87,48.87 0 0 0 42.69,30.52 l 10,0.5 v 51.14 z m 163.73,0 a 98,98 0 0 1 -38.9,-7.65 99.89,99.89 0 0 1 -31.73,-21.5 103.19,103.19 0 0 1 -21.74,-31.74 95.56,95.56 0 0 1 -8.06,-38.9 v -94.3 h -24.16 v -51.55 h 24.16 V 118 h 54.93 v 71.6 h 74.9 v 51.72 h -74.9 v 93.78 a 45.39,45.39 0 0 0 13.37,33.43 46.09,46.09 0 0 0 32.22,15.29 h 38.66 v 51.55 z m 376.14,-216.74 a 98.93,98.93 0 0 1 29.13,70.95 v 45.84 a 98.4,98.4 0 0 1 -7.65,38.9 c -15.656,37.2 -52.25,61.27 -92.62,60.9 H 2319.5 a 99.43,99.43 0 0 1 -39.14,-7.66 93.66,93.66 0 0 1 -31.5,-21.5 103.08,103.08 0 0 1 -21.74,-31.73 95.59,95.59 0 0 1 -8.06,-38.9 V 289.6 a 97,97 0 0 1 8.06,-39.13 102.42,102.42 0 0 1 21.74,-32.22 94,94 0 0 1 31.5,-21.51 99.94,99.94 0 0 1 39.14,-7.64 h 132.26 a 98.94,98.94 0 0 1 71.11,29.07 z m -25.3,71.6 a 48.32,48.32 0 0 0 -3.78,-19.33 49.8,49.8 0 0 0 -10.48,-15.56 47.46,47.46 0 0 0 -34.87,-14.09 h -125.57 a 47.52,47.52 0 0 0 -34.86,14.34 49.74,49.74 0 0 0 -10.47,15.54 48.46,48.46 0 0 0 -3.79,19.35 v 44.85 a 46.76,46.76 0 0 0 3.79,18.84 49.44,49.44 0 0 0 10.47,15.55 47.39,47.39 0 0 0 34.87,14.33 h 125.57 a 47.36,47.36 0 0 0 34.87,-14.33 49.46,49.46 0 0 0 10.69,-15.73 47.36,47.36 0 0 0 3.8,-18.85 z m 372.76,145.14 V 289.6 a 47.37,47.37 0 0 0 -14.33,-34.87 49.46,49.46 0 0 0 -15.54,-10.47 47,47 0 0 0 -18.84,-3.79 H 2695.4 a 47,47 0 0 0 -18.84,3.79 49.12,49.12 0 0 0 -15.55,10.47 47.36,47.36 0 0 0 -13.94,34.87 v 145.78 h -54.46 V 289.6 a 98.13,98.13 0 0 1 7.66,-38.9 100.13,100.13 0 0 1 21.52,-31.69 103.43,103.43 0 0 1 31.73,-21.74 95.64,95.64 0 0 1 38.91,-8.06 h 132.73 a 95.56,95.56 0 0 1 38.9,8.06 103.59,103.59 0 0 1 31.74,21.74 100.43,100.43 0 0 1 21.5,31.74 98.47,98.47 0 0 1 7.65,38.9 v 145.73 z m 149.9,-94.07 a 43,43 0 0 0 4.78,15.29 62.48,62.48 0 0 0 9.11,12.89 47.5,47.5 0 0 0 34.89,14.34 h 199 v 51.54 h -202.12 a 99.76,99.76 0 0 1 -39.13,-7.65 93.41,93.41 0 0 1 -31.49,-21.51 101.91,101.91 0 0 1 -21.75,-32.21 97.25,97.25 0 0 1 -8.06,-39.14 v -45.28 a 95.78,95.78 0 0 1 8.06,-38.89 102.65,102.65 0 0 1 21.75,-31.69 93.41,93.41 0 0 1 31.49,-21.51 100.13,100.13 0 0 1 39.13,-7.66 h 132.27 c 40.33,-0.234 76.852,23.78 92.62,60.9 a 98.53,98.53 0 0 1 7.65,38.89 v 52.05 z m 13.46,-85.87 a 49.43,49.43 0 0 0 -10.48,15.56 47,47 0 0 0 -3.78,18.85 h 223.83 A 47.2,47.2 0 0 0 3239.47,271 50,50 0 0 0 3229,255.44 47.5,47.5 0 0 0 3194.78,241.26 H 3069 a 47.43,47.43 0 0 0 -35.27,14.18"
           id="path10"
           inkscape:connector-curvature="0" />
      </g>
      <g
         id="g4534">
        <path
           style="fill:#ce3089"
           inkscape:connector-curvature="0"
           clip-path="none"
           id="path14"
           d="m 616.25,159.23 a 182.06,182.06 0 0 1 5.56,44.62 c 0,97.13 -75.8,175.83 -169.15,175.83 -93.35,0 -169.13,-78.68 -169.13,-175.83 0,-86.34 59.92,-158.2 138.93,-173 l -0.4,-0.72 -1.3,-2 c -112.77,2.93 -201.87,96.8 -198.9,209.6 2.97,112.8 96.82,201.87 209.64,198.9 C 544.32,433.66 633.36,339.82 630.4,227 a 204.69,204.69 0 0 0 -13.11,-66.81 z" />
        <path
           style="fill:#2f57a3"
           inkscape:connector-curvature="0"
           clip-path="none"
           id="path16"
           d="m 636.47,178.3 c 30.78,117.85 -39.8,238.33 -157.64,269.1 -117.84,30.77 -238.3,-39.8 -269.1,-157.63 -30.8,-117.83 39.8,-238.3 157.63,-269.1 a 220.22,220.22 0 0 1 38.91,-6.52 c -6.12,0 -12.24,-0.64 -18.44,-0.64 -147.3,0 -266.83,114.7 -266.83,256.2 0,141.5 119.36,256.13 266.66,256.13 147.3,0 266.68,-114.7 266.68,-256.13 A 246.2,246.2 0 0 0 637,179.12 Z" />
        <path
           style="fill:#293286"
           inkscape:connector-curvature="0"
           clip-path="none"
           id="path18"
           d="M 178.74,460.55 A 268.45,268.45 0 0 1 103.11,267.89 c 3.14,-139.5 113,-252.67 252.42,-267.9 H 331.85 C 142.58,6.93 -5.86,155.12 0.18,331.1 A 303.45,303.45 0 0 0 77.5,521.92 Z" />
      </g>
      <g
         inkscape:groupmode="layer"
         id="layer1"
         inkscape:label="Layer 1" />
    </g>
  </g>
</svg>
